<svg xmlns="http://www.w3.org/2000/svg" xmlns:xlink="http://www.w3.org/1999/xlink" viewBox="0 0 137.28 72.24"><defs><style>.cls-1{fill:#0b77cd;}.cls-2{fill:#0e84e4;}</style></defs><g id="Layer_2" data-name="Layer 2"><g id="Calque_1" data-name="Calque 1"><image width="572" height="301" transform="scale(0.24)" xlink:href="CenterHeader%20.png"/><path class="cls-1" d="M1.76,23.19h2l7.94,0-.81,1.19c.85,0,1.49.08,2.13.08a17.17,17.17,0,0,0,2.27-.05,19.75,19.75,0,0,0,2-.46,3.68,3.68,0,0,1-.75.51c-.61.22-1.25.38-1.87.56h-2a.25.25,0,0,0-.17,0l-1.1,0a4.36,4.36,0,0,0-.86-.17H.85l-.18-.22v0l-.21-.2,0,0-.2-.2h0l-.18-.38h0c0-.23,0-.46,0-.69l.3,0Z"/><path class="cls-2" d="M14,23.52h1.48l.2.24.15-.29a.66.66,0,0,0,0-.14.37.37,0,0,1,.18,0l.12.21L17,21.63l0-.34v0l.19,0c1-.42,1.07-1.37,1.27-2.24.43-.79.87-1.57,1.28-2.38a9.08,9.08,0,0,0,.4-1.07,3.08,3.08,0,0,1,.65.47,6.35,6.35,0,0,1,.59.9V17l.16.26-.06,0,0,.07c1.1,2.21,2.19,4.42,3.32,6.71l2.47-2L29,23.79l3.37-7.09.21.1c1.65,5.72,3.29,11.43,5,17.27.17-.21.22-.25.24-.31q4.52-12,9-24.09c.4-1.06.91-2.08,1.37-3.11.4,1,.79,2.09,1.19,3.13h0l1.29,3.18.57,1c-.26,1,.36,1.65.76,2.4l.31.71c0,.08-.08.17-.06.23.8,2.1,1.6,4.2,2.48,6.49l1-.92,2.6-1.89.72-.55h0l.21-.17a.29.29,0,0,0,.16,0l.21-.16h0a3.53,3.53,0,0,1,.9.49c1.17,1.18,2.3,2.39,3.46,3.61l4.85-4,4,3.95,2.08-3.75,1.69-2.84,4.35,8.62L83.58,24l1.53,2,3.54-7.52,1.42,5.32.21,1.05.19.32c.07.55.14,1.11.24,1.66,0,.05.19.07.29.1l.17.23v.29c-.29.83-.59,1.66-.89,2.49a.22.22,0,0,0-.13-.08l-1.65-6.69h-.28l-2.6,5.52-2.67-2.45-2.06,2.46-4.34-7.17c-1.33,1.73-1.82,4-3.77,5.32l-3.93-4.64c-1.06,1-2.1,2-3.12,3-.54.53-1,1.09-1.56,1.64h0l-1-.58a.15.15,0,0,0-.09-.14l-.33-.39-.21-.35-1.25-1.51h0l-1.55-2.11-.75,1h0l-3,2.41-2.18,1.52c-.62-1.75-1.19-3.41-1.8-5.06-.19-.51-.48-1-.72-1.49a8.58,8.58,0,0,0-.21-1.25C50.6,17.21,50,15.59,49.49,14l-1.17-3.42h-.24L45,19.61a2.28,2.28,0,0,0-.24.39L37.6,39.47c-.1.25-.23.49-.41.88L32.39,21l-.27,0-2.61,5.55-1.19-.93,0,0c-1.37-1.67-1.37-1.67-2.65,0-.09.12-.2.23-.28.36-.42.64-.72.66-1.15-.06-.69-1.15-1.51-2.22-2.27-3.32a.28.28,0,0,0,0-.15l-1.42-3.08L19,21.66l-.28.44h0c-.89.37-1,1.23-1.31,2l0,0-.22.19h0a17,17,0,0,1-2,.46,18.84,18.84,0,0,1-2.26.06c-.64,0-1.28-.05-2.14-.08l.82-1.2h.74A1,1,0,0,0,14,23.52Z"/></g></g></svg>