<svg width="383" height="514" viewBox="0 0 383 514" fill="none" xmlns="http://www.w3.org/2000/svg">
<path d="M382.959 463.068C380.013 477.313 374.777 490.05 363.485 499.77C351.702 509.993 338.119 513.848 323.063 513.848C185.107 513.848 46.9863 513.848 -90.9704 513.848C-136.465 513.848 -181.96 513.848 -227.454 513.848C-251.347 513.848 -269.84 503.625 -280.15 481.335C-283.913 473.291 -285.877 463.738 -285.877 455.023C-286.041 322.962 -286.041 191.069 -285.877 59.0072C-285.877 24.1484 -261.493 0.182998 -226.8 0.182998C-65.7684 0.182998 95.4266 0.182998 256.458 0.182998C278.714 0.182998 300.807 0.518178 323.063 0.0154071C354.32 -0.654955 378.05 20.629 381.977 48.449C382.141 49.287 382.632 50.125 382.796 50.9629C382.959 188.387 382.959 325.811 382.959 463.068ZM-235.964 29.3437C-234 31.5224 -233.509 32.1928 -232.855 32.6955C-146.12 113.642 -59.5497 194.755 27.3483 275.534C41.9131 289.109 55.8234 288.606 70.8792 274.696C156.468 194.755 242.057 114.815 327.646 34.8742C329.282 33.3659 331.082 32.3604 332.882 31.0196C332.555 30.3493 332.064 29.6789 331.737 29.0086C142.885 29.3437 -45.8031 29.3437 -235.964 29.3437ZM-236.782 483.179C-227.127 486.698 326.991 486.028 333.21 482.676C259.567 413.126 186.089 343.911 112.61 274.529C103.773 282.74 96.4085 289.612 88.8806 296.483C63.024 319.946 33.7307 319.946 7.87402 296.483C0.182465 289.612 -7.18176 282.573 -15.8552 274.529C-89.4976 344.079 -162.813 413.461 -236.782 483.179ZM-256.257 49.6222C-259.366 60.348 -258.875 456.699 -256.257 462.733C-183.105 393.685 -109.954 324.638 -36.4751 255.256C-109.299 187.046 -182.451 118.669 -256.257 49.6222ZM354.32 48.6166C279.533 118.502 206.217 187.046 133.393 255.088C207.036 324.638 280.187 393.685 354.32 463.738C354.32 325.476 354.32 188.219 354.32 48.6166Z" fill="#89CDD3" fill-opacity="0.5"/>
</svg>
