<svg width="174" height="135" viewBox="0 0 174 135" fill="none" xmlns="http://www.w3.org/2000/svg">
<ellipse cx="8.22115" cy="78.75" rx="8.22115" ry="7.78846" fill="#89CDD3"/>
<ellipse cx="8.22115" cy="7.78846" rx="8.22115" ry="7.78846" fill="#89CDD3"/>
<ellipse cx="8.22115" cy="102.115" rx="8.22115" ry="7.78846" fill="#89CDD3"/>
<circle cx="8.22115" cy="31.5865" r="8.22115" fill="#89CDD3"/>
<circle cx="8.22115" cy="125.913" r="8.22115" fill="#89CDD3"/>
<circle cx="8.22115" cy="54.9519" r="8.22115" fill="#89CDD3"/>
<ellipse cx="97.7885" cy="80.0481" rx="7.78846" ry="8.22115" fill="#89CDD3"/>
<ellipse cx="97.7885" cy="9.08651" rx="7.78846" ry="8.22115" fill="#89CDD3"/>
<ellipse cx="97.7885" cy="103.413" rx="7.78846" ry="8.22115" fill="#89CDD3"/>
<circle cx="97.7885" cy="32.8846" r="7.78846" fill="#89CDD3"/>
<circle cx="97.7885" cy="127.212" r="7.78846" fill="#89CDD3"/>
<circle cx="97.7885" cy="56.25" r="7.78846" fill="#89CDD3"/>
<ellipse cx="53.2212" cy="78.75" rx="8.22115" ry="7.78846" fill="#89CDD3"/>
<ellipse cx="53.2212" cy="7.78846" rx="8.22115" ry="7.78846" fill="#89CDD3"/>
<ellipse cx="53.2212" cy="102.115" rx="8.22115" ry="7.78846" fill="#89CDD3"/>
<circle cx="53.2212" cy="31.5865" r="8.22115" fill="#89CDD3"/>
<circle cx="53.2212" cy="125.913" r="8.22115" fill="#89CDD3"/>
<circle cx="53.2212" cy="54.9519" r="8.22115" fill="#89CDD3"/>
<ellipse cx="142.788" cy="80.0481" rx="7.78846" ry="8.22115" fill="#89CDD3"/>
<ellipse cx="142.788" cy="9.08651" rx="7.78846" ry="8.22115" fill="#89CDD3"/>
<ellipse cx="142.788" cy="103.413" rx="7.78846" ry="8.22115" fill="#89CDD3"/>
<circle cx="142.788" cy="32.8846" r="7.78846" fill="#89CDD3"/>
<circle cx="142.788" cy="127.212" r="7.78846" fill="#89CDD3"/>
<circle cx="142.788" cy="56.25" r="7.78846" fill="#89CDD3"/>
<ellipse cx="30.7212" cy="78.75" rx="8.22115" ry="7.78846" fill="#89CDD3"/>
<ellipse cx="30.7212" cy="7.78846" rx="8.22115" ry="7.78846" fill="#89CDD3"/>
<ellipse cx="30.7212" cy="102.115" rx="8.22115" ry="7.78846" fill="#89CDD3"/>
<circle cx="30.7212" cy="31.5865" r="8.22115" fill="#89CDD3"/>
<circle cx="30.7212" cy="125.913" r="8.22115" fill="#89CDD3"/>
<circle cx="30.7212" cy="54.9519" r="8.22115" fill="#89CDD3"/>
<ellipse cx="120.288" cy="80.0481" rx="7.78846" ry="8.22115" fill="#89CDD3"/>
<ellipse cx="120.288" cy="9.08651" rx="7.78846" ry="8.22115" fill="#89CDD3"/>
<ellipse cx="120.288" cy="103.413" rx="7.78846" ry="8.22115" fill="#89CDD3"/>
<circle cx="120.288" cy="32.8846" r="7.78846" fill="#89CDD3"/>
<circle cx="120.288" cy="127.212" r="7.78846" fill="#89CDD3"/>
<circle cx="120.288" cy="56.25" r="7.78846" fill="#89CDD3"/>
<circle cx="75.2885" cy="78.75" r="7.78846" fill="#89CDD3"/>
<circle cx="75.2885" cy="7.78846" r="7.78846" fill="#89CDD3"/>
<circle cx="75.2885" cy="102.115" r="7.78846" fill="#89CDD3"/>
<ellipse cx="75.2885" cy="31.5865" rx="7.78846" ry="8.22115" fill="#89CDD3"/>
<ellipse cx="75.2885" cy="125.913" rx="7.78846" ry="8.22115" fill="#89CDD3"/>
<ellipse cx="75.2885" cy="54.9519" rx="7.78846" ry="8.22115" fill="#89CDD3"/>
<ellipse cx="165.288" cy="80.0481" rx="7.78846" ry="8.22115" fill="#89CDD3"/>
<ellipse cx="165.288" cy="9.08651" rx="7.78846" ry="8.22115" fill="#89CDD3"/>
<ellipse cx="165.288" cy="103.413" rx="7.78846" ry="8.22115" fill="#89CDD3"/>
<circle cx="165.288" cy="32.8846" r="7.78846" fill="#89CDD3"/>
<circle cx="165.288" cy="127.212" r="7.78846" fill="#89CDD3"/>
<circle cx="165.288" cy="56.25" r="7.78846" fill="#89CDD3"/>
</svg>
