<svg xmlns="http://www.w3.org/2000/svg" viewBox="0 0 1110.7 418.47"><defs><style>.cls-1{fill:#6ce2f0;}.cls-2{fill:#fff;}</style></defs><g id="Layer_2" data-name="Layer 2"><g id="Capa_1" data-name="Capa 1"><path class="cls-1" d="M14,70.19a14,14,0,1,0-14-14,14,14,0,0,0,14,14Z"/><path class="cls-1" d="M56.16,28.08a14,14,0,1,0-14-14,14,14,0,0,0,14,14Z"/><path class="cls-2" d="M126.35,28.08a14,14,0,1,0-14-14,14,14,0,0,0,14,14Z"/><path class="cls-2" d="M168.47,70.19a14,14,0,1,0-14-14,14,14,0,0,0,14,14Z"/><path class="cls-2" d="M168.47,28.08a14,14,0,1,0-14-14,14,14,0,0,0,14,14Z"/><path class="cls-2" d="M126.35,112.31a14,14,0,1,0-14-14,14,14,0,0,0,14,14Z"/><path class="cls-2" d="M238.66,28.08a14,14,0,1,0-14-14,14,14,0,0,0,14,14Z"/><path class="cls-2" d="M280.78,70.19a14,14,0,1,0-14-14,14,14,0,0,0,14,14Z"/><path class="cls-2" d="M280.78,28.08a14,14,0,1,0-14-14,14,14,0,0,0,14,14Z"/><path class="cls-2" d="M351,28.08a14,14,0,1,0-14-14,14,14,0,0,0,14,14Z"/><path class="cls-2" d="M393.09,70.19a14,14,0,1,0-14-14,14,14,0,0,0,14,14Z"/><path class="cls-2" d="M463.29,28.08a14,14,0,1,0-14-14,14,14,0,0,0,14,14Z"/><path class="cls-2" d="M505.4,28.08a14,14,0,1,0-14-14,14,14,0,0,0,14,14Z"/><path class="cls-2" d="M505.4,112.31a14,14,0,1,0-14-14,14,14,0,0,0,14,14Z"/><path class="cls-2" d="M463.29,112.31a14,14,0,1,0-14-14,14,14,0,0,0,14,14Z"/><path class="cls-2" d="M575.6,28.08a14,14,0,1,0-14-14,14,14,0,0,0,14,14Z"/><polygon class="cls-1" points="936 169.72 871.41 169.72 833.99 211.2 895.06 211.2 936 169.72"/><polygon class="cls-2" points="234.88 268.49 119.76 170.53 76.52 170.26 76.52 328.08 118 328.08 118 229.98 234.61 328.08 276.23 328.08 276.23 170.26 234.88 170.26 234.88 268.49"/><path class="cls-2" d="M479.17,194.45a77.65,77.65,0,0,0-22.7-17.57,60.63,60.63,0,0,0-28.1-6.62H310.14V328.08H425.26a67.22,67.22,0,0,0,29.18-6.89,82.44,82.44,0,0,0,23.78-17.43,81.4,81.4,0,0,0,15.95-25A76.66,76.66,0,0,0,500,249a81.23,81.23,0,0,0-5.54-29.32A83.6,83.6,0,0,0,479.17,194.45ZM455.39,265a41.1,41.1,0,0,1-8.65,13,40.65,40.65,0,0,1-12.83,8.92,38.38,38.38,0,0,1-15.68,3.24H351.08V208.36h69.18a37.58,37.58,0,0,1,14.86,3.92,44.06,44.06,0,0,1,12.16,8.92,40.21,40.21,0,0,1,8.24,12.7,38.52,38.52,0,0,1,3.11,15.27A44.44,44.44,0,0,1,455.39,265Z"/><polygon class="cls-2" points="520.79 328.08 701.84 328.08 701.84 290.11 562.27 290.11 562.27 268.49 661.71 268.49 661.71 230.39 562.27 230.39 562.27 208.37 701.84 208.37 701.84 170.26 520.79 170.26 520.79 328.08"/><path class="cls-2" d="M1027.88,170.26H980.59L910.73,303.49,772.51,170.26H713.33L793.18,248l-79.85,80.13h65.12l48.61-47.87,48.41,47.87h69.31L964,291.6h80.53l19.18,36.48h47Zm-44.05,83.37,20.54-38.91,20.53,38.91Z"/><polygon class="cls-2" points="43.55 328.08 2.07 327.94 2.07 249.17 43.55 211.2 2.07 211.2 2.07 170.26 43.55 170.26 43.55 328.08"/><path class="cls-2" d="M604,418.47V364.4H625.5A29.32,29.32,0,0,1,636,366a13.11,13.11,0,0,1,6.41,4.9,14.68,14.68,0,0,1,2.19,8.31,10,10,0,0,1-1.59,5.84,12.55,12.55,0,0,1-3.77,3.61Q637,390,635.07,391l-1.3-2.35a18.59,18.59,0,0,1,6.89,2.06,13.16,13.16,0,0,1,5,4.59,13,13,0,0,1,1.86,7.13,15,15,0,0,1-2.59,9.12,15.31,15.31,0,0,1-7.13,5.23,29.09,29.09,0,0,1-10.22,1.7Zm11-32.18H626.4a10.6,10.6,0,0,0,3.36-.53,5.26,5.26,0,0,0,2.59-1.86,6.12,6.12,0,0,0,1-3.77q0-4-2.15-5.44a9.7,9.7,0,0,0-5.55-1.46H615.05Zm.08,23.34H627a15,15,0,0,0,4.5-.64,6.68,6.68,0,0,0,3.37-2.36,7.61,7.61,0,0,0,1.3-4.7,7.41,7.41,0,0,0-.82-3.69,5.75,5.75,0,0,0-2.14-2.18,9,9,0,0,0-3-1.06,20.64,20.64,0,0,0-3.41-.28H615.13Z"/><path class="cls-2" d="M689.87,418.47V364.4h25.22q8.74,0,13.62,4.17t4.86,12.53a18,18,0,0,1-1.58,7.42,14.77,14.77,0,0,1-12,8.79l.08-3.65,16.21,24.81H722.38l-14.27-23.91,4.95,4.37H700.9v19.54Zm11-28.05h11.83c2.92,0,5.17-.7,6.73-2.11s2.35-3.62,2.35-6.64a9.09,9.09,0,0,0-1.94-6.25q-1.95-2.19-6.16-2.19H700.9Z"/><path class="cls-2" d="M773.13,418.47l20.76-54.07H805.8l19.86,54.07H814.23l-17.67-50.34,4.86-.49-17.59,50.83Zm11-13.21,2.67-8.43h25.13l1,8.43Z"/><path class="cls-2" d="M865.39,418.47V364.4H876.5v54.07Z"/><path class="cls-2" d="M921.08,418.47V364.4h11.11v45.07h24.64v9Z"/><path class="cls-2" d="M997.77,418.47V364.4h11.11v45.07h24.64v9Z"/><path class="cls-2" d="M1074.46,418.47V364.4h36.24v8.83h-25.13v13.7h21.89v8.92h-22v13.78h25.21v8.84Z"/></g></g></svg>