<svg xmlns="http://www.w3.org/2000/svg" viewBox="0 0 1108.63 624.26"><defs><style>.cls-1,.cls-2{fill:#191f42;}.cls-2{fill-rule:evenodd;}</style></defs><g id="Layer_2" data-name="Layer 2"><g id="Capa_1" data-name="Capa 1"><path class="cls-1" d="M16,80.18a16,16,0,1,0-16-16,16,16,0,0,0,16,16Z"/><path class="cls-1" d="M64.15,32.07a16,16,0,1,0-16-16,16,16,0,0,0,16,16Z"/><path class="cls-1" d="M144.33,32.07a16,16,0,1,0-16-16,16,16,0,0,0,16,16Z"/><path class="cls-1" d="M192.44,80.18a16,16,0,1,0-16-16,16,16,0,0,0,16,16Z"/><path class="cls-1" d="M192.44,32.07a16,16,0,1,0-16-16,16,16,0,0,0,16,16Z"/><path class="cls-1" d="M144.33,128.29a16,16,0,1,0-16-16,16,16,0,0,0,16,16Z"/><path class="cls-1" d="M272.62,32.07a16,16,0,1,0-16-16,16,16,0,0,0,16,16Z"/><path class="cls-1" d="M320.73,80.18a16,16,0,1,0-16-16,16,16,0,0,0,16,16Z"/><path class="cls-1" d="M320.73,32.07a16,16,0,1,0-16-16,16,16,0,0,0,16,16Z"/><path class="cls-1" d="M400.91,32.07a16,16,0,1,0-16-16,16,16,0,0,0,16,16Z"/><path class="cls-1" d="M449,80.18a16,16,0,1,0-16-16,16,16,0,0,0,16,16Z"/><path class="cls-1" d="M529.2,32.07a16,16,0,1,0-16-16,16,16,0,0,0,16,16Z"/><path class="cls-1" d="M577.31,32.07a16,16,0,1,0-16-16,16,16,0,0,0,16,16Z"/><path class="cls-1" d="M577.31,128.29a16,16,0,1,0-16-16,16,16,0,0,0,16,16Z"/><path class="cls-1" d="M529.2,128.29a16,16,0,1,0-16-16,16,16,0,0,0,16,16Z"/><path class="cls-1" d="M657.49,32.07a16,16,0,1,0-16-16,16,16,0,0,0,16,16Z"/><path class="cls-1" d="M950.64,346.28q0,16.77-7.54,24.46t-19.89,7.67v.14q-12.8,0-20.05-7.67t-7.25-22.75V337.75q0-18.19-6-32.41a63.64,63.64,0,0,0-16.49-23.74,71.4,71.4,0,0,0-25.3-14.78,102,102,0,0,0-32.7-5h-22v35H815.6a42.8,42.8,0,0,1,16.19,3,33.72,33.72,0,0,1,12.38,8.38,38.52,38.52,0,0,1,8,12.94,49.24,49.24,0,0,1,2.7,16.63,50.14,50.14,0,0,1-2.7,16.92,36.93,36.93,0,0,1-8,12.8,32.37,32.37,0,0,1-12.38,8.24,44.59,44.59,0,0,1-16.19,2.84h-59v35.11h58.81a99.52,99.52,0,0,0,32.7-5.11,70.65,70.65,0,0,0,24.3-13.93l.29.28a60.18,60.18,0,0,0,21.47,13.79q12.36,4.83,28.57,5h.43a18.23,18.23,0,0,0,3.81-.41c19.48-.67,34.93-6.38,46.22-17.28q18.06-17.42,18-49.69v-32h16.78v-35H950.79Z"/><path class="cls-1" d="M956.9,257.29a21.34,21.34,0,0,0,13.78,4.55,21.71,21.71,0,0,0,13.79-4.55,15.77,15.77,0,0,0,6.41-13.08q0-8.24-6.13-12.79a22.87,22.87,0,0,0-14.07-4.55,22.2,22.2,0,0,0-13.78,4.41,15.62,15.62,0,0,0-6.11,12.93A16,16,0,0,0,956.9,257.29Z"/><polygon class="cls-1" points="1094.13 378.55 1094.13 248.13 1055.88 209.88 1055.88 413.53 1108.63 413.53 1108.63 378.55 1094.13 378.55"/><rect class="cls-1" x="1055.89" y="171.64" width="38.24" height="38.24"/><path class="cls-1" d="M659,439a23,23,0,0,0-14.1-4.56,21.61,21.61,0,0,0-13.67,4.42A15.52,15.52,0,0,0,625,451.8a15.9,15.9,0,0,0,6.26,13.1,20.83,20.83,0,0,0,13.67,4.56,22,22,0,0,0,14-4.56,15.91,15.91,0,0,0,6.27-13.1Q665.13,443.55,659,439Z"/><path class="cls-1" d="M707.56,439a22.77,22.77,0,0,0-14-4.56,21.83,21.83,0,0,0-13.81,4.42,15.52,15.52,0,0,0-6.26,12.95,15.9,15.9,0,0,0,6.26,13.1,21,21,0,0,0,13.81,4.56,21.8,21.8,0,0,0,13.82-4.56,15.93,15.93,0,0,0,6.26-13.1Q713.68,443.55,707.56,439Z"/><path class="cls-1" d="M682.27,346.58q0,16.8-7.55,24.49t-19.93,7.69q-12.94,0-20.21-7.83t-7.26-22.64V337.61q0-18-5.9-32.12A67,67,0,0,0,605,281.74a74.41,74.41,0,0,0-44.73-19.8c-.37,0-87.9-.1-103.14-.1l81.59-59-12-31.51L401.78,261.84l16.07,35H546.71a45,45,0,0,1,16.49,2.84,34.62,34.62,0,0,1,20.33,21,48.29,48.29,0,0,1,2.85,16.92,47.17,47.17,0,0,1-2.85,16.7,37.93,37.93,0,0,1-7.89,12.94,35.61,35.61,0,0,1-12.36,8.39A41.9,41.9,0,0,1,547,378.7H370.53c-8.61-.1-14.18-.15-15-.15q-12.8,0-20-7.67t-7.25-22.75V297H345V262H287.73v84.44q0,16.79-7.68,24.46t-19.9,7.67q-12.93,0-20.47-7.67t-7.53-24.74V297h17.62V262H191.63v84.44q0,16.79-7.68,24.46-7.53,7.68-19.9,7.67-12.8,0-20.47-7.67T136,346.14V297h17.64V262H95.53v86.15q0,14.92-7.25,22.75t-20.19,7.67q-12.8,0-20-7.67T40.8,348.13V171.92H0V347.56A77.3,77.3,0,0,0,4.41,374a56.32,56.32,0,0,0,13.22,20.9,60.22,60.22,0,0,0,21.46,13.79q12.66,4.83,29,4.84,16.5,0,29-5A61.07,61.07,0,0,0,115.29,398,57.49,57.49,0,0,0,135.2,409.4a92.88,92.88,0,0,0,28.85,4.13,86.57,86.57,0,0,0,28.58-4.41,58.74,58.74,0,0,0,19.05-10.81,56.68,56.68,0,0,0,19.61,11.09,93,93,0,0,0,28.86,4.13,86.57,86.57,0,0,0,28.58-4.41,59,59,0,0,0,19.47-11.23,61.39,61.39,0,0,0,18.34,10.66q12.65,5,29,5v.13H547a99.59,99.59,0,0,0,32.62-5.11,72.11,72.11,0,0,0,24.29-13.82l0,0,.22.22a60.1,60.1,0,0,0,21.64,13.81q12.39,4.84,28.62,5h.42q32,0,50.12-17.44T723,346.58v-32h16.79v-35H682.42Z"/><path class="cls-1" d="M1093.13,615.84a5,5,0,0,0-3.52-1.3,4.8,4.8,0,0,0-3.52,1.35,4.69,4.69,0,0,0-1.38,3.55,4.49,4.49,0,0,0,1.38,3.44,4.89,4.89,0,0,0,3.52,1.3,4.83,4.83,0,0,0,3.52-1.34,4.72,4.72,0,0,0,1.37-3.55A4.52,4.52,0,0,0,1093.13,615.84Z"/><path class="cls-1" d="M1108.63,524.41v9h-5.2V567a26,26,0,0,1-1.92,10.4,22.15,22.15,0,0,1-2.91,5.15h0s0,0,0,0a30.53,30.53,0,0,1-5.11,6.18,27.8,27.8,0,0,1-10.33,6.19c-.8.29-1.62.54-2.44.77a36.1,36.1,0,0,1-9.64,1.3v-9.27a25,25,0,0,0,8.72-1.52,21,21,0,0,0,7.19-4.52,22,22,0,0,0,4.89-7.42,26,26,0,0,0,1.92-10.4V524.41Z"/><path class="cls-1" d="M832.82,615.84a5,5,0,0,0-3.52-1.3,4.82,4.82,0,0,0-3.52,1.35,4.69,4.69,0,0,0-1.38,3.55,4.49,4.49,0,0,0,1.38,3.44,4.91,4.91,0,0,0,3.52,1.3,4.81,4.81,0,0,0,3.52-1.34,4.72,4.72,0,0,0,1.38-3.55A4.53,4.53,0,0,0,832.82,615.84Z"/><path class="cls-1" d="M848.89,619.29a4.71,4.71,0,0,1-4.9,4.89h-.42a4.83,4.83,0,0,1-3.18-1.33,4.66,4.66,0,0,1-1.38-3.48,5.39,5.39,0,0,1,.26-1.69,4.58,4.58,0,0,1,1.12-1.83,5.38,5.38,0,0,1,7.12-.07A4.58,4.58,0,0,1,848.89,619.29Z"/><path class="cls-1" d="M854.59,524.41V567a26,26,0,0,1-1.92,10.4,22.51,22.51,0,0,1-2.91,5.15h0s0,0,0,0a30.87,30.87,0,0,1-5.11,6.18A27.88,27.88,0,0,1,834.31,595c-.8.29-1.62.54-2.44.77a36.15,36.15,0,0,1-9.64,1.3v-9.27a24.86,24.86,0,0,0,8.71-1.52,21,21,0,0,0,7.19-4.52,21.83,21.83,0,0,0,4.9-7.42,26.05,26.05,0,0,0,1.91-10.4V524.41Z"/><path class="cls-1" d="M693.73,622.27a30,30,0,0,1-10.33-6.2,30.55,30.55,0,0,1-7.19-10.33,35.55,35.55,0,0,1-2.68-14.38v-34h9.64v34A26.76,26.76,0,0,0,685,601.69a22.74,22.74,0,0,0,5,7.42,20.11,20.11,0,0,0,7.19,4.51,25.64,25.64,0,0,0,17.45,0,20.11,20.11,0,0,0,7.19-4.51,22.9,22.9,0,0,0,5-7.42,27,27,0,0,0,1.84-10.33v-94h14.84v9h-5.2v85a35.72,35.72,0,0,1-2.68,14.38,30.69,30.69,0,0,1-7.19,10.33,30.06,30.06,0,0,1-10.33,6.2,38.18,38.18,0,0,1-24.33,0Z"/><path class="cls-1" d="M866.27,597V497.37h9.64V588h5.21v9Z"/><path class="cls-1" d="M896.41,524.41v66.83a27,27,0,0,1-1.83,10.33,22.65,22.65,0,0,1-5,7.42,20.14,20.14,0,0,1-7.19,4.52,24.92,24.92,0,0,1-8.72,1.53v9.11a38,38,0,0,0,12.17-2,30.31,30.31,0,0,0,10.33-6.2,30.86,30.86,0,0,0,7.18-10.33,35.6,35.6,0,0,0,2.68-14.39V524.41Z"/><path class="cls-2" d="M822.22,587.76V597H735.07v-9.26Z"/><path class="cls-2" d="M1071.07,587.76V597H902.26v-9.26Z"/></g></g></svg>